<svg width="36" height="24" viewBox="0 0 36 24" fill="none" xmlns="http://www.w3.org/2000/svg">
<path fill-rule="evenodd" clip-rule="evenodd" d="M0.333496 1.58325C0.333496 1.03097 0.781211 0.583252 1.3335 0.583252H34.6668C35.2191 0.583252 35.6668 1.03097 35.6668 1.58325C35.6668 2.13554 35.2191 2.58325 34.6668 2.58325H1.3335C0.781211 2.58325 0.333496 2.13554 0.333496 1.58325ZM0.333496 11.9999C0.333496 11.4476 0.781212 10.9999 1.3335 10.9999L34.6668 10.9999C35.2191 10.9999 35.6668 11.4476 35.6668 11.9999C35.6668 12.5522 35.2191 12.9999 34.6668 12.9999L1.3335 12.9999C0.781211 12.9999 0.333496 12.5522 0.333496 11.9999ZM1.3335 21.4166C0.781211 21.4166 0.333496 21.8643 0.333496 22.4166C0.333496 22.9689 0.781211 23.4166 1.3335 23.4166H34.6668C35.2191 23.4166 35.6668 22.9689 35.6668 22.4166C35.6668 21.8643 35.2191 21.4166 34.6668 21.4166H1.3335Z" fill="#333"/>
</svg>
